<svg xmlns="http://www.w3.org/2000/svg" stroke="currentColor" fill="none" height="64" width="64" viewBox="0 0 18 18" aria-hidden="true"><path d="M34.511 30.131c.15.085.273.208.358.358a1.046 1.046 0 010 1.014.981.981 0 01-.366.361 1.023 1.023 0 01-1.01 0 .981.981 0 01-.493-.866c0-.176.045-.35.132-.504a.975.975 0 01.361-.361 1.043 1.043 0 011.018 0v-.002zm-.072 1.624a.858.858 0 00.426-.76.924.924 0 00-.113-.443.825.825 0 00-.309-.311.912.912 0 00-.886 0 .846.846 0 00-.313.315.913.913 0 000 .88.856.856 0 00.75.432.853.853 0 00.445-.113zm.008-.718a.348.348 0 01-.175.129l.257.398h-.195l-.235-.363h-.308v.363h-.193v-1.132h.453c.12-.006.24.03.335.104a.35.35 0 01.129.28.387.387 0 01-.063.22h-.005zm-.2-.052a.2.2 0 00.075-.167.195.195 0 00-.075-.165.34.34 0 00-.21-.059h-.249v.45h.248a.332.332 0 00.211-.059z" fill="#666" stroke="none"></path><path d="M32 0H0v32h32V0z" fill="#D5000E" stroke="none"></path><path d="M2.857 19.773h2.024v-6.56H2.857v6.56zm3.105 0h2.025v-3.267c0-.85.162-1.673 1.214-1.673 1.053 0 1.053.97 1.053 1.727v3.214h2.025v-3.619c0-1.755-.378-3.1-2.43-3.1-1.603 0-1.947.76-1.947.76v-.602h-1.94v6.56zm7.397 0h2.025v-4.936h1.492v-1.624h-1.492v-1.04c0-.863.323-1.066.972-1.066.227.004.45.05.661.135l.094-1.714a4.89 4.89 0 00-1.188-.121c-2.2 0-2.564 1.214-2.564 2.646v7.72zm7.431-6.717c-2.025 0-3.645 1.35-3.645 3.443 0 2.094 1.62 3.444 3.645 3.444s3.644-1.35 3.644-3.444c0-2.093-1.62-3.443-3.644-3.443zm0 5.102c-1.012 0-1.62-.675-1.62-1.66 0-.987.608-1.66 1.62-1.66s1.62.674 1.62 1.66c0 .984-.608 1.66-1.62 1.66zm4.438 1.62h2.023v-2.674c0-1.308.19-2.416 1.729-2.416.293.004.583.05.863.135v-1.776c-2.066-.09-2.592.739-2.592.739v-.574h-2.023v6.566zm-22.371-7.64h2.024V9.663l-2.024 1.388v1.085z" fill="#fff" stroke="none"></path></svg>